<svg xmlns="http://www.w3.org/2000/svg" xmlns:xlink="http://www.w3.org/1999/xlink" version="1.1" x="0px" y="0px" viewBox="5.12 2.5 42.76 48" style="enable-background:new 0 0 53 53;" xml:space="preserve"><g><path d="M25.5244141,20.8618164h3c0.5522461,0,1-0.4477539,1-1s-0.4477539-1-1-1h-3c-0.5522461,0-1,0.4477539-1,1   S24.972168,20.8618164,25.5244141,20.8618164z"/><path d="M6.1210938,50.5c12.6739845,0,28.166008,0,40.7578125,0c0.5522461,0,1-0.4477539,1-1s-0.4477539-1-1-1h-4.6313477   v-4.3833008c0-0.5522461-0.4477539-1-1-1H37.973938c-0.1320801-1.3134766-0.2641602-2.5945435-0.3962402-3.8481445h2.414978   c0.5522461,0,1-0.4477539,1-1s-0.4477539-1-1-1h-2.6279297c-0.151062-1.3973999-0.3022461-2.7532959-0.4534302-4.0737305h2.5715942   c0.5522461,0,1-0.4477539,1-1s-0.4477539-1-1-1h-2.8042603c-0.1983032-1.6786499-0.3967896-3.2944336-0.5957642-4.84375h2.6143799   c0.5522461,0,1-0.4477539,1-1s-0.4477539-1-1-1h-2.8753052c-0.2265625-1.6976318-0.4538574-3.3083496-0.6818848-4.8432617   h2.5928345c0.5522461,0,1-0.4477539,1-1s-0.4477539-1-1-1h-2.8972778c-0.2697144-1.7254028-0.5407715-3.3374634-0.8135376-4.84375   h2.4725342c0.5522461,0,1-0.4477539,1-1s-0.4477539-1-1-1H33.647522c-0.2320557-1.1907349-0.465332-2.310791-0.7002563-3.3500977   c-0.0942993-0.4175415-0.2634277-0.8076172-0.4638672-1.1831055l1.9238281-1.9238281   c0.390625-0.390625,0.390625-1.0234375,0-1.4140625s-1.0234375-0.390625-1.4140625,0l-1.7756348,1.7756348   c-1.2194824-1.0509644-2.9244995-1.7058105-4.8000488-1.7058105c-1.8897095,0-3.6073608,0.6637573-4.8284302,1.7286987   l-1.7985229-1.7985229c-0.390625-0.390625-1.0234375-0.390625-1.4140625,0s-0.390625,1.0234375,0,1.4140625l1.9560547,1.9560547   c-0.1917114,0.3657227-0.3532715,0.7452393-0.4448242,1.1503906c-0.2349243,1.0394897-0.4682617,2.159729-0.7003174,3.3505859   h-2.6820068c-0.5522461,0-1,0.4477539-1,1s0.4477539,1,1,1h2.3074951c-0.2727661,1.5062256-0.5438843,3.1184082-0.8135986,4.84375   h-2.732666c-0.5522461,0-1,0.4477539-1,1s0.4477539,1,1,1h2.4282227c-0.2280273,1.5349731-0.4552612,3.1455688-0.6818237,4.8432617   h-2.7107544c-0.5522461,0-1,0.4477539-1,1s0.4477539,1,1,1h2.4498291c-0.1989746,1.5493774-0.3974609,3.1651001-0.5957642,4.84375   h-2.6397095c-0.5522461,0-1,0.4477539-1,1s0.4477539,1,1,1h2.4070435   c-0.1511841,1.3204346-0.3023682,2.6763306-0.4534302,4.0737305h-2.4633789c-0.5522461,0-1,0.4477539-1,1s0.4477539,1,1,1   h2.2504272c-0.1320801,1.2536011-0.2641602,2.534668-0.3962402,3.8481445h-3.1085815c-0.5522461,0-1,0.4477539-1,1V48.5H6.1210938   c-0.5522461,0-1,0.4477539-1,1S5.5688477,50.5,6.1210938,50.5z M19.5177002,20.8604736   c0.0023804,0,0.0043335,0.0013428,0.0067139,0.0013428h3c0.5522461,0,1-0.4477539,1-1s-0.4477539-1-1-1h-2.710022   c0.6659546-4.3773804,1.3387451-8.0742188,2.0244751-11.1074219c0.3720703-1.6484375,2.3408203-2.8916016,4.5786133-2.8916016   s4.206543,1.2431641,4.5786133,2.8920898c0.68573,3.03302,1.3585205,6.7297363,2.0244751,11.1069336h-1.4961548   c-0.5522461,0-1,0.4477539-1,1s0.4477539,1,1,1h1.7460938c0.0161743,0,0.0296021-0.0084839,0.0455933-0.0092163   c0.3071899,2.1205444,0.6131592,4.390686,0.918335,6.8145752c-0.0003662,0-0.0006714-0.0001831-0.0010376-0.0001831   c-1.4003906,0-2.137207,0.7514648-2.675293,1.2998047c-0.4755859,0.4858398-0.7084961,0.7001953-1.2460938,0.7001953   s-0.7705078-0.2143555-1.2460938-0.7001953c-0.5380859-0.5483398-1.2749023-1.2998047-2.675293-1.2998047   c-1.3994141,0-2.1347656,0.7514648-2.6723633,1.300293c-0.4746094,0.4853516-0.7070313,0.699707-1.2426758,0.699707   c-0.5351563,0-0.7675781-0.2143555-1.2421875-0.6992188c-0.5318604-0.543457-1.2606812-1.2836304-2.6331787-1.2981567   C18.9050903,25.2478027,19.2108154,22.9794922,19.5177002,20.8604736z M18.3574829,29.6257935   c0.0679932,0.0145874,0.1316528,0.0411987,0.2040405,0.0411987c0.5351563,0,0.7675781,0.2143555,1.2421875,0.6992188   c0.5371094,0.5488281,1.2729492,1.3007813,2.671875,1.3007813c1.3994141,0,2.1347656-0.7514648,2.6723633-1.300293   c0.4746094-0.4853516,0.7070313-0.699707,1.2426758-0.699707c0.5375977,0,0.7709961,0.2148438,1.2470703,0.7001953   c0.5375977,0.5483398,1.2739258,1.2998047,2.6743164,1.2998047s2.1367188-0.7514648,2.6743164-1.2998047   c0.4760742-0.4853516,0.7094727-0.7001953,1.2470703-0.7001953c0.0862427,0,0.163269-0.0286255,0.243103-0.0491333   c0.4968262,4.0838013,0.9921265,8.5722656,1.4883423,13.4963989h-4.5727539v-2.7729492   c0-2.6972656-2.1943359-4.8920898-4.8920898-4.8920898s-4.8920898,2.1948242-4.8920898,4.8920898v2.7729492h-4.737793   C17.3660278,38.1932373,17.8609619,33.7075195,18.3574829,29.6257935z M29.3920898,40.3413086v2.7729492h-5.7841797v-2.7729492   c0-1.5947266,1.2973633-2.8920898,2.8920898-2.8920898S29.3920898,38.746582,29.3920898,40.3413086z M12.7524414,45.1166992   c9.9870071,0,17.724062,0,27.4951172,0V48.5H12.7524414V45.1166992z"/></g></svg>