<svg xmlns="http://www.w3.org/2000/svg" viewBox="5.12 2.5 42.76 48"><path d="M25.524 20.862h3a1 1 0 0 0 0-2h-3a1 1 0 0 0 0 2z"/><path d="M6.121 50.5H46.88a1 1 0 0 0 0-2h-4.631v-4.383a1 1 0 0 0-1-1h-3.274a813.289 813.289 0 0 0-.396-3.848h2.415a1 1 0 0 0 0-2h-2.628a648.397 648.397 0 0 0-.454-4.074h2.572a1 1 0 0 0 0-2H36.68a482.28 482.28 0 0 0-.596-4.844h2.614a1 1 0 0 0 0-2h-2.875a330.18 330.18 0 0 0-.682-4.843h2.593a1 1 0 0 0 0-2h-2.897c-.27-1.726-.541-3.338-.814-4.844h2.473a1 1 0 0 0 0-2h-2.847c-.233-1.19-.466-2.31-.7-3.35a4.736 4.736 0 0 0-.465-1.183l1.924-1.924a1 1 0 1 0-1.414-1.414l-1.775 1.776c-1.22-1.051-2.925-1.706-4.8-1.706-1.89 0-3.608.664-4.829 1.728l-1.798-1.798a1 1 0 1 0-1.415 1.414l1.957 1.956a4.731 4.731 0 0 0-.445 1.15 112.17 112.17 0 0 0-.7 3.351h-2.683a1 1 0 0 0 0 2h2.308A204.368 204.368 0 0 0 18 17.508h-2.732a1 1 0 0 0 0 2h2.428a330.207 330.207 0 0 0-.682 4.843h-2.71a1 1 0 0 0 0 2h2.45c-.2 1.55-.398 3.165-.597 4.844h-2.64a1 1 0 0 0 0 2h2.408a581.37 581.37 0 0 0-.454 4.074h-2.463a1 1 0 0 0 0 2h2.25a813.265 813.265 0 0 0-.396 3.848h-3.109a1 1 0 0 0-1 1V48.5h-4.63a1 1 0 0 0 0 2zm13.397-29.64.006.002h3a1 1 0 0 0 0-2h-2.71c.666-4.378 1.34-8.074 2.025-11.108.372-1.648 2.34-2.891 4.578-2.891s4.207 1.243 4.58 2.892c.685 3.033 1.358 6.73 2.024 11.107h-1.497a1 1 0 0 0 0 2h1.747c.016 0 .03-.009.045-.01.307 2.121.613 4.391.918 6.815-1.401 0-2.138.751-2.676 1.3-.475.486-.708.7-1.246.7s-.77-.214-1.246-.7c-.538-.549-1.275-1.3-2.675-1.3s-2.135.751-2.673 1.3c-.474.486-.707.7-1.242.7-.536 0-.768-.214-1.243-.7-.531-.543-1.26-1.283-2.633-1.297.305-2.422.61-4.69.918-6.81zm-1.16 8.766c.067.014.131.041.204.041.535 0 .767.214 1.242.7.537.548 1.273 1.3 2.672 1.3 1.399 0 2.134-.751 2.672-1.3.475-.486.707-.7 1.243-.7.537 0 .77.215 1.247.7.537.549 1.274 1.3 2.674 1.3s2.137-.751 2.674-1.3c.476-.485.71-.7 1.247-.7.087 0 .164-.029.244-.05a667.09 667.09 0 0 1 1.488 13.497h-4.573v-2.773c0-2.697-2.194-4.892-4.892-4.892s-4.892 2.195-4.892 4.892v2.773H16.87a667 667 0 0 1 1.487-13.488zM29.391 40.34v2.773h-5.784V40.34c0-1.594 1.297-2.892 2.892-2.892s2.892 1.298 2.892 2.892zm-16.64 4.776h27.496V48.5H12.752v-3.383z"/></svg>